<svg id="Capa_1" enable-background="new 0 0 512 512" height="512" viewBox="0 0 512 512" width="512" xmlns="http://www.w3.org/2000/svg"><path d="m46 361h195v30h30v-30h195c8.284 0 15-6.716 15-15v-120c0-8.284-6.716-15-15-15h-195v-60h195c8.284 0 15-6.716 15-15v-121c0-8.284-6.716-15-15-15h-420c-8.284 0-15 6.716-15 15v121c0 8.284 6.716 15 15 15h195v60h-195c-8.284 0-15 6.716-15 15v120c0 8.284 6.716 15 15 15zm360-300c8.284 0 15 6.716 15 15s-6.716 15-15 15-15-6.716-15-15 6.716-15 15-15zm-60 0c8.284 0 15 6.716 15 15s-6.716 15-15 15-15-6.716-15-15 6.716-15 15-15zm-255 15c0-8.284 6.716-15 15-15h180c8.284 0 15 6.716 15 15s-6.716 15-15 15h-180c-8.284 0-15-6.716-15-15zm315 195c8.284 0 15 6.716 15 15s-6.716 15-15 15-15-6.716-15-15 6.716-15 15-15zm-60 0c8.284 0 15 6.716 15 15s-6.716 15-15 15-15-6.716-15-15 6.716-15 15-15zm-240 0h180c8.284 0 15 6.716 15 15s-6.716 15-15 15h-180c-8.284 0-15-6.716-15-15s6.716-15 15-15z"/><path d="m316 421h-120c-8.284 0-15 6.716-15 15v61c0 8.284 6.716 15 15 15h120c8.284 0 15-6.716 15-15v-61c0-8.284-6.716-15-15-15z"/><path d="m496 451h-135v30h135c8.28 0 15-6.72 15-15s-6.72-15-15-15z"/><path d="m1 466c0 8.28 6.72 15 15 15h135v-30h-135c-8.28 0-15 6.72-15 15z"/></svg>