<svg id="Layer_1" data-name="Layer 1" xmlns="http://www.w3.org/2000/svg" viewBox="0 0 489.365 56.364"><path d="M31.394,43.881H30.17c.144,3.817,2.664,10.8,12.745,15.194a1.7,1.7,0,0,1,1.152,1.511c0,1.8-2.016,2.881-3.528,2.881-3.241,0-17.786-4.1-22.034-19.513C15.48,48.49,8.28,60.586,6.984,62.747A2.477,2.477,0,0,1,4.9,64.116c-2.3,0-4.9-4.249-4.9-6.266a6.617,6.617,0,0,1,1.008-3.168c3.673-6.192,28.37-41.475,29.235-42.7a1.454,1.454,0,0,1,1.3-.649c3.384,0,6.552,4.537,6.84,7.489,2.737-1.728,8.5-5.04,12.457-5.04,4.321,0,4.753,3.744,6.481,6.625a5.705,5.705,0,0,1,.72,3.024C58.036,34.305,41.331,43.881,31.394,43.881ZM48.6,19.255c-7.057,0-18.506,10.009-21.747,16.13a1.916,1.916,0,0,0-.215.864c0,.792.648,1.368,2.087,1.368,5.4,0,21.53-11.233,21.53-16.634A1.606,1.606,0,0,0,48.6,19.255Z" transform="translate(0.001 -10.039)"/><path d="M141.773,16.375c-13.033,13.393-28.3,31.251-38.523,44.211A5.149,5.149,0,0,1,99,62.891c-2.665,0-8.353-3.168-8.353-6.049a6.346,6.346,0,0,1,.216-1.511c.576-1.584,7.561-16.562,9.577-21.962-6.985,5.9-25.058,25.418-28.083,28.8a3.323,3.323,0,0,1-2.3,1.37,6.527,6.527,0,0,1-2.88-1.225,10.311,10.311,0,0,1-5.184-9,4.391,4.391,0,0,1,.5-2.017c.5-1.224,20.953-37.083,22.321-39.6a1.021,1.021,0,0,1,1.009-.5c1.152,0,3.24.792,7.344,1.8a4.117,4.117,0,0,1,1.944,3.168,2.023,2.023,0,0,1-.288,1.08c-3.96,6.409-15.7,24.41-19.585,32.043,10.009-9.865,30.89-33.123,33.2-35.211a3.524,3.524,0,0,1,2.448-1.08c1.44,0,8.569,3.168,8.569,4.464a1.17,1.17,0,0,1-.288.72C117.939,20.408,106.2,38.121,102.818,50c4.9-5.977,28.947-32.619,30.315-33.915a11.455,11.455,0,0,1,7.2-3.24c1.369,0,2.592.5,2.592,1.512A3.268,3.268,0,0,1,141.773,16.375Z" transform="translate(0.001 -10.039)"/><path d="M171,15.943c-2.016.648-11.233,2.016-18.794,3.241-2.376,3.024-7.056,9.288-11.953,16.417,5.761-.864,13.609-1.656,15.41-1.656,1.44,0,3.96,1.944,4.824,3.024a1.367,1.367,0,0,1,.216.648c0,.576-.5,1.3-1.944,1.3-1.872,0-15.7,1.3-24.914,6.409-2.089,3.24-3.961,6.408-5.545,9.217a125.2,125.2,0,0,1,16.418-2.521c2.376,0,6.408,1.225,6.408,4.248v.145c-.072,1.368-13.969,3.024-25.13,7.56a1.6,1.6,0,0,1-.648.072,9.981,9.981,0,0,1-4.752-2.016,7.063,7.063,0,0,1-2.953-5.689,6.559,6.559,0,0,1,.5-2.519c1.3-3.673,17.858-30.171,22.25-36.58a9.267,9.267,0,0,1-.576-2.88c0-.72.144-1.3.5-1.44,1.656-.72,18.866-2.521,21.962-2.592h1.224c2.809,0,4.032.36,6.985,2.376a2.633,2.633,0,0,1,1.224,2.16C171.723,15.367,171.507,15.871,171,15.943Z" transform="translate(0.001 -10.039)"/><path d="M194.977,37.833a14.557,14.557,0,0,1,4.393,10.153c0,10.657-12.674,15.481-21.53,15.481-3.313,0-10.873-1.44-14.618-7.7-.216.361-.431.793-.648,1.153-.792,1.511-1.8,2.087-2.736,2.087-2.3,0-4.68-3.312-4.68-6.84a6.948,6.948,0,0,1,.72-3.1c1.512-2.952,15.265-20.234,22.538-29.09-4.177,1.224-7.7,2.592-9.5,3.816a3.86,3.86,0,0,1-2.161.72c-2.808,0-3.744-3.6-3.744-5.833a2.316,2.316,0,0,1,1.513-2.448c2.448-1.08,15.481-6.192,26.858-6.192,7.489,0,11.376,1.152,14.905,8.065,1.009,1.8,2.953,4.32,2.953,6.48C209.235,29.192,202.97,34.593,194.977,37.833ZM184.9,40.713a38.415,38.415,0,0,0-13.321,2.808c-2.016,2.665-3.888,5.329-5.544,7.7,1.656,2.376,6.048,3.528,10.873,3.528,7.56,0,15.985-3.024,15.985-9.36C192.889,41.217,188.137,40.713,184.9,40.713Zm9.937-23.474a38.123,38.123,0,0,0-4.824.36,2.472,2.472,0,0,1,.936,1.656,2.089,2.089,0,0,1-.864,1.513c-.72.648-5.04,5.688-10.153,12.024,6.624-.144,22.61-6.12,22.61-11.736C202.538,17.527,197.209,17.239,194.833,17.239Z" transform="translate(0.001 -10.039)"/><path d="M237.958,63.323c-5.616,0-10.008-2.3-11.3-5.905-.721,1.3-1.3,2.521-1.8,3.6-.72,1.584-1.728,2.231-2.736,2.231-2.376,0-4.968-3.455-4.968-6.984a5.733,5.733,0,0,1,.576-2.664c1.367-3.24,15.481-23.618,22.249-32.978-2.231,1.007-4.68,2.231-7.488,3.744a3.608,3.608,0,0,1-1.8.5c-2.017,0-5.688-2.953-5.688-5.113a1.657,1.657,0,0,1,1.007-1.512c6.193-3.1,14.186-7.632,22.611-7.632a20.78,20.78,0,0,1,12.673,4.248c1.944,1.44,8.64,5.472,8.64,14.473C269.929,44.242,253.368,63.323,237.958,63.323Zm15.266-46.372a18.54,18.54,0,0,0-3.24.288,4.161,4.161,0,0,1,1.439,3.025,3.274,3.274,0,0,1-.935,2.3C249.335,23.72,238.535,38.193,230.9,50.29a5.449,5.449,0,0,0-.072,1.08c0,3.24,1.656,4.825,4.32,4.825,10.225,0,25.994-20.594,25.994-31.035C261.144,19.4,258.48,16.951,253.224,16.951Z" transform="translate(0.001 -10.039)"/><path d="M317.16,15.943c-2.016.648-11.233,2.016-18.793,3.241-2.376,3.024-7.057,9.288-11.953,16.417,5.76-.864,13.609-1.656,15.409-1.656,1.44,0,3.96,1.944,4.824,3.024a1.367,1.367,0,0,1,.216.648c0,.576-.5,1.3-1.944,1.3-1.872,0-15.7,1.3-24.914,6.409-2.088,3.24-3.961,6.408-5.545,9.217a125.22,125.22,0,0,1,16.417-2.521c2.377,0,6.41,1.225,6.41,4.248v.145c-.073,1.368-13.97,3.024-25.13,7.56a1.606,1.606,0,0,1-.649.072,9.988,9.988,0,0,1-4.753-2.016,7.068,7.068,0,0,1-2.952-5.689,6.559,6.559,0,0,1,.5-2.519c1.3-3.673,17.859-30.171,22.25-36.58a9.3,9.3,0,0,1-.576-2.88c0-.72.144-1.3.5-1.44,1.656-.72,18.865-2.521,21.962-2.592h1.223c2.809,0,4.033.36,6.985,2.376a2.633,2.633,0,0,1,1.224,2.16C317.88,15.367,317.665,15.871,317.16,15.943Z" transform="translate(0.001 -10.039)"/><path d="M337.894,39.2c-2.592,0-4.177-4.825-4.177-6.912a8.285,8.285,0,0,1,2.521-5.833,5.312,5.312,0,0,0,1.8-3.24c0-.864-.649-1.441-1.729-1.441-4.465,0-12.745,8.93-12.745,13.106,0,5.76,9.648,12.889,9.648,19.585,0,6.193-7.344,9.217-12.6,9.217a21.948,21.948,0,0,1-11.593-3.6c-7.489-4.825-10.585-9.361-10.585-12.169a2.666,2.666,0,0,1,2.808-2.736c2.664,0,6.049,2.664,6.48,5.544.649,4.249,5.545,7.417,8.425,7.345,3.1,0,6.337-1.656,6.337-5.185a6.963,6.963,0,0,0-2.664-5.256c-2.737-2.376-7.057-7.2-7.057-14.186a20.046,20.046,0,0,1,.864-5.544c2.016-6.552,13.249-15.985,20.234-15.985,2.808,0,4.824,1.656,6.553,5.256,1.727,3.528,4.824,5.041,4.824,9.937C345.239,31.064,341.422,39.2,337.894,39.2Z" transform="translate(0.001 -10.039)"/><path d="M369.933,20.264c-9.073,9.936-22.61,33.483-26.427,40.9-.935,1.873-2.015,2.592-3.023,2.592-2.665,0-6.049-4.9-6.049-7.272a4.648,4.648,0,0,1,.864-2.593c3.241-4.752,19.8-31.322,26.93-40.9a2.158,2.158,0,0,1,1.8-1.08c2.088,0,7.272,3.24,7.272,5.472A4.266,4.266,0,0,1,369.933,20.264Z" transform="translate(0.001 -10.039)"/><path d="M401.685,28.976c-1.872,2.88-4.176,4.537-6.264,4.537a3.768,3.768,0,0,1-3.888-3.817,8.907,8.907,0,0,1,3.6-6.48c2.16-1.512,3.168-2.737,3.168-3.673,0-1.008-.936-1.512-1.872-1.512-8.785,0-31.035,25.346-31.035,34.563,0,2.3,1.44,3.385,3.528,3.385,6.121,0,16.274-9.289,16.418-12.529-2.16,0-3.961-.144-4.824-.217a2.788,2.788,0,0,1-2.377-3.1c0-3.528,1.009-4.176,4.32-4.176,4.609,0,15.986.288,17.283.288,1.439,0,4.464,2.664,4.464,4.68,0,.936-.648,1.728-2.521,2.016a71.162,71.162,0,0,1-7.992.505,5.1,5.1,0,0,1,.072,1.008c0,10.369-19.658,19.945-21.674,19.945-3.961-.36-5.905-2.664-8.209-4.68-3.816-3.168-7.344-4.681-7.344-10.369,0-14.4,26.786-39.171,33.7-38.883,3.168.144,4.68,1.224,7.056,3.024,1.657,1.224,3.384,1.728,5.473,3.96a5.894,5.894,0,0,1,1.655,4.105C404.421,24.008,403.125,26.6,401.685,28.976Z" transform="translate(0.001 -10.039)"/><path d="M461.159,18.751c-7.129,6.913-22.467,29.523-30.243,41.188-1.512,2.231-3.1,3.24-4.752,3.24a6.934,6.934,0,0,1-3.889-1.656c-1.584-1.3-5.473-1.728-5.4-6.048.072-7.057,3.383-18.938,5.04-26.067-5.544,7.921-20.162,30.171-21.17,31.971a2.965,2.965,0,0,1-2.737,1.44c-2.376,0-5.183-1.944-5.183-4.824a6.352,6.352,0,0,1,.575-2.376c.721-1.369,26.787-39.532,27.938-41.332a2.481,2.481,0,0,1,2.161-1.08,10.712,10.712,0,0,1,3.745,1.08c2.015.936,3.887.432,5.9,2.088.935.864,2.16,1.656,2.16,2.953a2.7,2.7,0,0,1-.072.719c-1.584,4.753-6.7,14.4-7.992,29.451,4.391-5.977,24.985-36.291,25.994-37.875a2.646,2.646,0,0,1,2.519-1.081c2.449,0,7.129,2.161,7.129,5.113A4.421,4.421,0,0,1,461.159,18.751Z" transform="translate(0.001 -10.039)"/><path d="M480.019,39.2c-2.592,0-4.177-4.825-4.177-6.912a8.285,8.285,0,0,1,2.521-5.833,5.312,5.312,0,0,0,1.8-3.24c0-.864-.649-1.441-1.729-1.441-4.465,0-12.745,8.93-12.745,13.106,0,5.76,9.648,12.889,9.648,19.585,0,6.193-7.344,9.217-12.6,9.217a21.948,21.948,0,0,1-11.593-3.6c-7.489-4.825-10.585-9.361-10.585-12.169a2.666,2.666,0,0,1,2.808-2.736c2.664,0,6.049,2.664,6.48,5.544.649,4.249,5.545,7.417,8.425,7.345,3.1,0,6.337-1.656,6.337-5.185a6.963,6.963,0,0,0-2.664-5.256c-2.737-2.376-7.057-7.2-7.057-14.186a20.046,20.046,0,0,1,.864-5.544c2.016-6.552,13.249-15.985,20.234-15.985,2.808,0,4.824,1.656,6.553,5.256,1.727,3.528,4.824,5.041,4.824,9.937C487.364,31.064,483.547,39.2,480.019,39.2Z" transform="translate(0.001 -10.039)"/><path d="M33.394,45.881H32.17c.144,3.817,2.664,10.8,12.745,15.194a1.7,1.7,0,0,1,1.152,1.511c0,1.8-2.016,2.881-3.528,2.881-3.241,0-17.786-4.1-22.034-19.513C17.48,50.49,10.28,62.586,8.984,64.747A2.477,2.477,0,0,1,6.9,66.116c-2.3,0-4.9-4.249-4.9-6.266a6.617,6.617,0,0,1,1.008-3.168c3.673-6.192,28.37-41.475,29.235-42.7a1.454,1.454,0,0,1,1.3-.649c3.384,0,6.552,4.537,6.84,7.489,2.737-1.728,8.5-5.04,12.457-5.04,4.321,0,4.753,3.744,6.481,6.625a5.705,5.705,0,0,1,.72,3.024C60.036,36.305,43.331,45.881,33.394,45.881ZM50.6,21.255c-7.057,0-18.506,10.009-21.747,16.13a1.916,1.916,0,0,0-.215.864c0,.792.648,1.368,2.087,1.368,5.4,0,21.53-11.233,21.53-16.634A1.606,1.606,0,0,0,50.6,21.255Z" transform="translate(0.001 -10.039)" fill="#ed1c24"/><path d="M143.773,18.375c-13.033,13.393-28.3,31.251-38.523,44.211A5.149,5.149,0,0,1,101,64.891c-2.665,0-8.353-3.168-8.353-6.049a6.346,6.346,0,0,1,.216-1.511c.576-1.584,7.561-16.562,9.577-21.962-6.985,5.9-25.058,25.418-28.083,28.8a3.323,3.323,0,0,1-2.3,1.37,6.527,6.527,0,0,1-2.88-1.225,10.311,10.311,0,0,1-5.184-9,4.391,4.391,0,0,1,.5-2.017c.5-1.224,20.953-37.083,22.321-39.6a1.021,1.021,0,0,1,1.009-.5c1.152,0,3.24.792,7.344,1.8a4.117,4.117,0,0,1,1.944,3.168,2.023,2.023,0,0,1-.288,1.08c-3.96,6.409-15.7,24.41-19.585,32.043,10.009-9.865,30.89-33.123,33.2-35.211a3.524,3.524,0,0,1,2.448-1.08c1.44,0,8.569,3.168,8.569,4.464a1.17,1.17,0,0,1-.288.72C119.939,22.408,108.2,40.121,104.818,52c4.9-5.977,28.947-32.619,30.315-33.915a11.455,11.455,0,0,1,7.2-3.24c1.369,0,2.592.5,2.592,1.512A3.268,3.268,0,0,1,143.773,18.375Z" transform="translate(0.001 -10.039)" fill="#ed1c24"/><path d="M173,17.943c-2.016.648-11.233,2.016-18.794,3.241-2.376,3.024-7.056,9.288-11.953,16.417,5.761-.864,13.609-1.656,15.41-1.656,1.44,0,3.96,1.944,4.824,3.024a1.367,1.367,0,0,1,.216.648c0,.576-.5,1.3-1.944,1.3-1.872,0-15.7,1.3-24.914,6.409-2.089,3.24-3.961,6.408-5.545,9.217a125.2,125.2,0,0,1,16.418-2.521c2.376,0,6.408,1.225,6.408,4.248v.145c-.072,1.368-13.969,3.024-25.13,7.56a1.6,1.6,0,0,1-.648.072,9.981,9.981,0,0,1-4.752-2.016,7.063,7.063,0,0,1-2.953-5.689,6.559,6.559,0,0,1,.5-2.519c1.3-3.673,17.858-30.171,22.25-36.58a9.267,9.267,0,0,1-.576-2.88c0-.72.144-1.3.5-1.44,1.656-.72,18.866-2.521,21.962-2.592h1.224c2.809,0,4.032.36,6.985,2.376a2.633,2.633,0,0,1,1.224,2.16C173.723,17.367,173.507,17.871,173,17.943Z" transform="translate(0.001 -10.039)" fill="#ed1c24"/><path d="M196.977,39.833a14.557,14.557,0,0,1,4.393,10.153c0,10.657-12.674,15.481-21.53,15.481-3.313,0-10.873-1.44-14.618-7.7-.216.361-.431.793-.648,1.153-.792,1.511-1.8,2.087-2.736,2.087-2.3,0-4.68-3.312-4.68-6.839a6.952,6.952,0,0,1,.72-3.1c1.512-2.952,15.265-20.234,22.538-29.09-4.177,1.224-7.7,2.592-9.5,3.816a3.86,3.86,0,0,1-2.161.72c-2.808,0-3.744-3.6-3.744-5.833a2.316,2.316,0,0,1,1.513-2.448c2.448-1.08,15.481-6.192,26.858-6.192,7.489,0,11.376,1.152,14.905,8.065,1.009,1.8,2.953,4.32,2.953,6.48C211.235,31.192,204.97,36.593,196.977,39.833ZM186.9,42.713a38.415,38.415,0,0,0-13.321,2.808c-2.016,2.665-3.888,5.329-5.544,7.7,1.656,2.376,6.048,3.528,10.873,3.528,7.56,0,15.985-3.024,15.985-9.36C194.889,43.217,190.137,42.713,186.9,42.713Zm9.937-23.474a38.123,38.123,0,0,0-4.824.36,2.472,2.472,0,0,1,.936,1.656,2.089,2.089,0,0,1-.864,1.513c-.72.648-5.04,5.688-10.153,12.024,6.624-.144,22.61-6.12,22.61-11.736C204.538,19.527,199.209,19.239,196.833,19.239Z" transform="translate(0.001 -10.039)" fill="#ed1c24"/><path d="M239.958,65.323c-5.616,0-10.008-2.3-11.3-5.9-.721,1.3-1.3,2.521-1.8,3.6-.72,1.584-1.728,2.231-2.736,2.231-2.376,0-4.968-3.455-4.968-6.984a5.733,5.733,0,0,1,.576-2.664c1.367-3.24,15.481-23.618,22.249-32.978-2.231,1.007-4.68,2.231-7.488,3.744a3.608,3.608,0,0,1-1.8.5c-2.017,0-5.688-2.953-5.688-5.113a1.657,1.657,0,0,1,1.007-1.512c6.193-3.1,14.186-7.632,22.611-7.632a20.78,20.78,0,0,1,12.673,4.248c1.944,1.44,8.64,5.472,8.64,14.473C271.929,46.242,255.368,65.323,239.958,65.323Zm15.266-46.372a18.54,18.54,0,0,0-3.24.288,4.161,4.161,0,0,1,1.439,3.025,3.274,3.274,0,0,1-.935,2.3C251.335,25.72,240.535,40.193,232.9,52.29a5.449,5.449,0,0,0-.072,1.08c0,3.24,1.656,4.825,4.32,4.825,10.225,0,25.994-20.594,25.994-31.035C263.144,21.4,260.48,18.951,255.224,18.951Z" transform="translate(0.001 -10.039)" fill="#ed1c24"/><path d="M319.16,17.943c-2.016.648-11.233,2.016-18.793,3.241-2.376,3.024-7.057,9.288-11.953,16.417,5.76-.864,13.609-1.656,15.409-1.656,1.44,0,3.96,1.944,4.824,3.024a1.367,1.367,0,0,1,.216.648c0,.576-.5,1.3-1.944,1.3-1.872,0-15.7,1.3-24.914,6.409-2.088,3.24-3.961,6.408-5.545,9.217a125.22,125.22,0,0,1,16.417-2.521c2.377,0,6.41,1.225,6.41,4.248v.145c-.073,1.368-13.97,3.024-25.13,7.56a1.606,1.606,0,0,1-.649.072,9.988,9.988,0,0,1-4.753-2.016,7.068,7.068,0,0,1-2.952-5.689,6.559,6.559,0,0,1,.5-2.519c1.3-3.673,17.859-30.171,22.25-36.58a9.3,9.3,0,0,1-.576-2.88c0-.72.144-1.3.5-1.44,1.656-.72,18.865-2.521,21.962-2.592h1.223c2.809,0,4.033.36,6.985,2.376a2.633,2.633,0,0,1,1.224,2.16C319.88,17.367,319.665,17.871,319.16,17.943Z" transform="translate(0.001 -10.039)" fill="#ed1c24"/><path d="M339.894,41.2c-2.592,0-4.177-4.825-4.177-6.912a8.285,8.285,0,0,1,2.521-5.833,5.312,5.312,0,0,0,1.8-3.24c0-.864-.649-1.441-1.729-1.441-4.465,0-12.745,8.93-12.745,13.106,0,5.76,9.648,12.889,9.648,19.585,0,6.193-7.344,9.217-12.6,9.217a21.948,21.948,0,0,1-11.593-3.6c-7.489-4.825-10.585-9.361-10.585-12.169a2.666,2.666,0,0,1,2.808-2.736c2.664,0,6.049,2.664,6.48,5.544.649,4.249,5.545,7.417,8.425,7.345,3.1,0,6.337-1.656,6.337-5.185a6.965,6.965,0,0,0-2.664-5.256c-2.737-2.376-7.057-7.2-7.057-14.186a20.046,20.046,0,0,1,.864-5.544c2.016-6.552,13.249-15.985,20.234-15.985,2.808,0,4.824,1.656,6.553,5.256,1.727,3.528,4.824,5.041,4.824,9.937C347.239,33.064,343.422,41.2,339.894,41.2Z" transform="translate(0.001 -10.039)" fill="#ed1c24"/><path d="M371.933,22.264c-9.073,9.936-22.61,33.483-26.427,40.9-.935,1.873-2.015,2.592-3.023,2.592-2.665,0-6.049-4.9-6.049-7.272a4.648,4.648,0,0,1,.864-2.593c3.241-4.752,19.8-31.322,26.93-40.9a2.158,2.158,0,0,1,1.8-1.08c2.088,0,7.272,3.24,7.272,5.472A4.266,4.266,0,0,1,371.933,22.264Z" transform="translate(0.001 -10.039)" fill="#ed1c24"/><path d="M403.685,30.976c-1.872,2.88-4.176,4.537-6.264,4.537a3.768,3.768,0,0,1-3.888-3.817,8.907,8.907,0,0,1,3.6-6.48c2.16-1.512,3.168-2.737,3.168-3.673,0-1.008-.936-1.512-1.872-1.512-8.785,0-31.035,25.346-31.035,34.563,0,2.3,1.44,3.385,3.528,3.385,6.121,0,16.274-9.289,16.418-12.529-2.16,0-3.961-.144-4.824-.217a2.788,2.788,0,0,1-2.377-3.1c0-3.528,1.009-4.176,4.32-4.176,4.609,0,15.986.288,17.283.288,1.439,0,4.464,2.664,4.464,4.68,0,.936-.648,1.728-2.521,2.016a71.162,71.162,0,0,1-7.992.505,5.1,5.1,0,0,1,.072,1.008c0,10.369-19.658,19.945-21.674,19.945-3.961-.36-5.905-2.664-8.209-4.68-3.816-3.168-7.344-4.681-7.344-10.369,0-14.4,26.786-39.171,33.7-38.883,3.168.144,4.68,1.224,7.056,3.024,1.657,1.224,3.384,1.728,5.473,3.96a5.894,5.894,0,0,1,1.655,4.105C406.421,26.008,405.125,28.6,403.685,30.976Z" transform="translate(0.001 -10.039)" fill="#ed1c24"/><path d="M463.159,20.751c-7.129,6.913-22.467,29.523-30.243,41.188-1.512,2.231-3.1,3.24-4.752,3.24a6.934,6.934,0,0,1-3.889-1.656c-1.584-1.3-5.473-1.728-5.4-6.048.072-7.057,3.383-18.938,5.04-26.067-5.544,7.921-20.162,30.171-21.17,31.971a2.965,2.965,0,0,1-2.737,1.44c-2.376,0-5.183-1.944-5.183-4.824a6.352,6.352,0,0,1,.575-2.376c.721-1.369,26.787-39.532,27.938-41.332a2.481,2.481,0,0,1,2.161-1.08,10.712,10.712,0,0,1,3.745,1.08c2.015.936,3.887.432,5.9,2.088.935.864,2.16,1.656,2.16,2.953a2.7,2.7,0,0,1-.072.719c-1.584,4.753-6.7,14.4-7.992,29.451,4.391-5.977,24.985-36.291,25.994-37.875a2.646,2.646,0,0,1,2.519-1.081c2.449,0,7.129,2.161,7.129,5.113A4.421,4.421,0,0,1,463.159,20.751Z" transform="translate(0.001 -10.039)" fill="#ed1c24"/><path d="M482.019,41.2c-2.592,0-4.177-4.825-4.177-6.912a8.285,8.285,0,0,1,2.521-5.833,5.312,5.312,0,0,0,1.8-3.24c0-.864-.649-1.441-1.729-1.441-4.465,0-12.745,8.93-12.745,13.106,0,5.76,9.648,12.889,9.648,19.585,0,6.193-7.344,9.217-12.6,9.217a21.948,21.948,0,0,1-11.593-3.6c-7.489-4.825-10.585-9.361-10.585-12.169a2.666,2.666,0,0,1,2.808-2.736c2.664,0,6.049,2.664,6.48,5.544.649,4.249,5.545,7.417,8.425,7.345,3.1,0,6.337-1.656,6.337-5.185a6.965,6.965,0,0,0-2.664-5.256c-2.737-2.376-7.057-7.2-7.057-14.186a20.046,20.046,0,0,1,.864-5.544c2.016-6.552,13.249-15.985,20.234-15.985,2.808,0,4.824,1.656,6.553,5.256,1.727,3.528,4.824,5.041,4.824,9.937C489.364,33.064,485.547,41.2,482.019,41.2Z" transform="translate(0.001 -10.039)" fill="#ed1c24"/><path d="M32.394,44.881H31.17c.144,3.817,2.664,10.8,12.745,15.194a1.7,1.7,0,0,1,1.152,1.511c0,1.8-2.016,2.881-3.528,2.881-3.241,0-17.786-4.1-22.034-19.513C16.48,49.49,9.28,61.586,7.984,63.747A2.477,2.477,0,0,1,5.9,65.116c-2.3,0-4.9-4.249-4.9-6.266a6.617,6.617,0,0,1,1.008-3.168c3.673-6.192,28.37-41.475,29.235-42.7a1.454,1.454,0,0,1,1.3-.649c3.384,0,6.552,4.537,6.84,7.489,2.737-1.728,8.5-5.04,12.457-5.04,4.321,0,4.753,3.744,6.481,6.625a5.705,5.705,0,0,1,.72,3.024C59.036,35.305,42.331,44.881,32.394,44.881ZM49.6,20.255c-7.057,0-18.506,10.009-21.747,16.13a1.916,1.916,0,0,0-.215.864c0,.792.648,1.368,2.087,1.368,5.4,0,21.53-11.233,21.53-16.634A1.606,1.606,0,0,0,49.6,20.255Z" transform="translate(0.001 -10.039)" fill="#ed1c24"/><path d="M142.773,17.375c-13.033,13.393-28.3,31.251-38.523,44.211a5.149,5.149,0,0,1-4.248,2.3c-2.665,0-8.353-3.168-8.353-6.049a6.346,6.346,0,0,1,.216-1.511c.576-1.584,7.561-16.562,9.577-21.962-6.985,5.9-25.058,25.418-28.083,28.8a3.323,3.323,0,0,1-2.3,1.37,6.527,6.527,0,0,1-2.88-1.225,10.311,10.311,0,0,1-5.184-9,4.391,4.391,0,0,1,.5-2.017c.5-1.224,20.953-37.083,22.321-39.6a1.021,1.021,0,0,1,1.009-.5c1.152,0,3.24.792,7.344,1.8a4.117,4.117,0,0,1,1.944,3.168,2.023,2.023,0,0,1-.288,1.08c-3.96,6.409-15.7,24.41-19.585,32.043,10.009-9.865,30.89-33.123,33.2-35.211a3.524,3.524,0,0,1,2.448-1.08c1.44,0,8.569,3.168,8.569,4.464a1.17,1.17,0,0,1-.288.72C118.939,21.408,107.2,39.121,103.818,51c4.9-5.977,28.947-32.619,30.315-33.915a11.455,11.455,0,0,1,7.2-3.24c1.369,0,2.592.5,2.592,1.512A3.268,3.268,0,0,1,142.773,17.375Z" transform="translate(0.001 -10.039)" fill="#ed1c24"/><path d="M172,16.943c-2.016.648-11.233,2.016-18.794,3.241-2.376,3.024-7.056,9.288-11.953,16.417,5.761-.864,13.609-1.656,15.41-1.656,1.44,0,3.96,1.944,4.824,3.024a1.367,1.367,0,0,1,.216.648c0,.576-.5,1.3-1.944,1.3-1.872,0-15.7,1.3-24.914,6.409-2.089,3.24-3.961,6.408-5.545,9.217a125.2,125.2,0,0,1,16.418-2.521c2.376,0,6.408,1.225,6.408,4.248v.145c-.072,1.368-13.969,3.024-25.13,7.56a1.6,1.6,0,0,1-.648.072,9.981,9.981,0,0,1-4.752-2.016,7.063,7.063,0,0,1-2.953-5.689,6.559,6.559,0,0,1,.5-2.519c1.3-3.673,17.858-30.171,22.25-36.58a9.267,9.267,0,0,1-.576-2.88c0-.72.144-1.3.5-1.44,1.656-.72,18.866-2.521,21.962-2.592h1.224c2.809,0,4.032.36,6.985,2.376a2.633,2.633,0,0,1,1.224,2.16C172.723,16.367,172.507,16.871,172,16.943Z" transform="translate(0.001 -10.039)" fill="#ed1c24"/><path d="M195.977,38.833a14.557,14.557,0,0,1,4.393,10.153c0,10.657-12.674,15.481-21.53,15.481-3.313,0-10.873-1.44-14.618-7.7-.216.361-.431.793-.648,1.153-.792,1.511-1.8,2.087-2.736,2.087-2.3,0-4.68-3.312-4.68-6.839a6.949,6.949,0,0,1,.72-3.1c1.512-2.952,15.265-20.234,22.538-29.09-4.177,1.224-7.7,2.592-9.5,3.816a3.86,3.86,0,0,1-2.161.72c-2.808,0-3.744-3.6-3.744-5.833a2.316,2.316,0,0,1,1.513-2.448c2.448-1.08,15.481-6.192,26.858-6.192,7.489,0,11.376,1.152,14.905,8.065,1.009,1.8,2.953,4.32,2.953,6.48C210.235,30.192,203.97,35.593,195.977,38.833ZM185.9,41.713a38.415,38.415,0,0,0-13.321,2.808c-2.016,2.665-3.888,5.329-5.544,7.7,1.656,2.376,6.048,3.528,10.873,3.528,7.56,0,15.985-3.024,15.985-9.36C193.889,42.217,189.137,41.713,185.9,41.713Zm9.937-23.474a38.123,38.123,0,0,0-4.824.36,2.472,2.472,0,0,1,.936,1.656,2.089,2.089,0,0,1-.864,1.513c-.72.648-5.04,5.688-10.153,12.024,6.624-.144,22.61-6.12,22.61-11.736C203.538,18.527,198.209,18.239,195.833,18.239Z" transform="translate(0.001 -10.039)" fill="#ed1c24"/><path d="M238.958,64.323c-5.616,0-10.008-2.3-11.3-5.9-.721,1.3-1.3,2.521-1.8,3.6-.72,1.584-1.728,2.231-2.736,2.231-2.376,0-4.968-3.455-4.968-6.984a5.733,5.733,0,0,1,.576-2.664c1.367-3.24,15.481-23.618,22.249-32.978-2.231,1.007-4.68,2.231-7.488,3.744a3.608,3.608,0,0,1-1.8.5c-2.017,0-5.688-2.953-5.688-5.113a1.657,1.657,0,0,1,1.007-1.512c6.193-3.1,14.186-7.632,22.611-7.632a20.78,20.78,0,0,1,12.673,4.248c1.944,1.44,8.64,5.472,8.64,14.473C270.929,45.242,254.368,64.323,238.958,64.323Zm15.266-46.372a18.54,18.54,0,0,0-3.24.288,4.161,4.161,0,0,1,1.439,3.025,3.274,3.274,0,0,1-.935,2.3C250.335,24.72,239.535,39.193,231.9,51.29a5.449,5.449,0,0,0-.072,1.08c0,3.24,1.656,4.825,4.32,4.825,10.225,0,25.994-20.594,25.994-31.035C262.144,20.4,259.48,17.951,254.224,17.951Z" transform="translate(0.001 -10.039)" fill="#ed1c24"/><path d="M318.16,16.943c-2.016.648-11.233,2.016-18.793,3.241-2.376,3.024-7.057,9.288-11.953,16.417,5.76-.864,13.609-1.656,15.409-1.656,1.44,0,3.96,1.944,4.824,3.024a1.367,1.367,0,0,1,.216.648c0,.576-.5,1.3-1.944,1.3-1.872,0-15.7,1.3-24.914,6.409-2.088,3.24-3.961,6.408-5.545,9.217a125.22,125.22,0,0,1,16.417-2.521c2.377,0,6.41,1.225,6.41,4.248v.145c-.073,1.368-13.97,3.024-25.13,7.56a1.606,1.606,0,0,1-.649.072,9.988,9.988,0,0,1-4.753-2.016,7.068,7.068,0,0,1-2.952-5.689,6.559,6.559,0,0,1,.5-2.519c1.3-3.673,17.859-30.171,22.25-36.58a9.3,9.3,0,0,1-.576-2.88c0-.72.144-1.3.5-1.44,1.656-.72,18.865-2.521,21.962-2.592h1.223c2.809,0,4.033.36,6.985,2.376a2.633,2.633,0,0,1,1.224,2.16C318.88,16.367,318.665,16.871,318.16,16.943Z" transform="translate(0.001 -10.039)" fill="#ed1c24"/><path d="M338.894,40.2c-2.592,0-4.177-4.825-4.177-6.912a8.285,8.285,0,0,1,2.521-5.833,5.312,5.312,0,0,0,1.8-3.24c0-.864-.649-1.441-1.729-1.441-4.465,0-12.745,8.93-12.745,13.106,0,5.76,9.648,12.889,9.648,19.585,0,6.193-7.344,9.217-12.6,9.217a21.948,21.948,0,0,1-11.593-3.6c-7.489-4.825-10.585-9.361-10.585-12.169a2.666,2.666,0,0,1,2.808-2.736c2.664,0,6.049,2.664,6.48,5.544.649,4.249,5.545,7.417,8.425,7.345,3.1,0,6.337-1.656,6.337-5.185a6.963,6.963,0,0,0-2.664-5.256c-2.737-2.376-7.057-7.2-7.057-14.186a20.046,20.046,0,0,1,.864-5.544c2.016-6.552,13.249-15.985,20.234-15.985,2.808,0,4.824,1.656,6.553,5.256,1.727,3.528,4.824,5.041,4.824,9.937C346.239,32.064,342.422,40.2,338.894,40.2Z" transform="translate(0.001 -10.039)" fill="#ed1c24"/><path d="M370.933,21.264c-9.073,9.936-22.61,33.483-26.427,40.9-.935,1.873-2.015,2.592-3.023,2.592-2.665,0-6.049-4.9-6.049-7.272a4.648,4.648,0,0,1,.864-2.593c3.241-4.752,19.8-31.322,26.93-40.9a2.158,2.158,0,0,1,1.8-1.08c2.088,0,7.272,3.24,7.272,5.472A4.266,4.266,0,0,1,370.933,21.264Z" transform="translate(0.001 -10.039)" fill="#ed1c24"/><path d="M402.685,29.976c-1.872,2.88-4.176,4.537-6.264,4.537a3.768,3.768,0,0,1-3.888-3.817,8.907,8.907,0,0,1,3.6-6.48c2.16-1.512,3.168-2.737,3.168-3.673,0-1.008-.936-1.512-1.872-1.512-8.785,0-31.035,25.346-31.035,34.563,0,2.3,1.44,3.385,3.528,3.385,6.121,0,16.274-9.289,16.418-12.529-2.16,0-3.961-.144-4.824-.217a2.788,2.788,0,0,1-2.377-3.1c0-3.528,1.009-4.176,4.32-4.176,4.609,0,15.986.288,17.283.288,1.439,0,4.464,2.664,4.464,4.68,0,.936-.648,1.728-2.521,2.016a71.162,71.162,0,0,1-7.992.505,5.1,5.1,0,0,1,.072,1.008c0,10.369-19.658,19.945-21.674,19.945-3.961-.36-5.905-2.664-8.209-4.68-3.816-3.168-7.344-4.681-7.344-10.369,0-14.4,26.786-39.171,33.7-38.883,3.168.144,4.68,1.224,7.056,3.024,1.657,1.224,3.384,1.728,5.473,3.96a5.894,5.894,0,0,1,1.655,4.105C405.421,25.008,404.125,27.6,402.685,29.976Z" transform="translate(0.001 -10.039)" fill="#ed1c24"/><path d="M462.159,19.751c-7.129,6.913-22.467,29.523-30.243,41.188-1.512,2.231-3.1,3.24-4.752,3.24a6.934,6.934,0,0,1-3.889-1.656c-1.584-1.3-5.473-1.728-5.4-6.048.072-7.057,3.383-18.938,5.04-26.067-5.544,7.921-20.162,30.171-21.17,31.971a2.965,2.965,0,0,1-2.737,1.44c-2.376,0-5.183-1.944-5.183-4.824a6.352,6.352,0,0,1,.575-2.376c.721-1.369,26.787-39.532,27.938-41.332a2.481,2.481,0,0,1,2.161-1.08,10.712,10.712,0,0,1,3.745,1.08c2.015.936,3.887.432,5.9,2.088.935.864,2.16,1.656,2.16,2.953a2.7,2.7,0,0,1-.072.719c-1.584,4.753-6.7,14.4-7.992,29.451,4.391-5.977,24.985-36.291,25.994-37.875a2.646,2.646,0,0,1,2.519-1.081c2.449,0,7.129,2.161,7.129,5.113A4.421,4.421,0,0,1,462.159,19.751Z" transform="translate(0.001 -10.039)" fill="#ed1c24"/><path d="M481.019,40.2c-2.592,0-4.177-4.825-4.177-6.912a8.285,8.285,0,0,1,2.521-5.833,5.312,5.312,0,0,0,1.8-3.24c0-.864-.649-1.441-1.729-1.441-4.465,0-12.745,8.93-12.745,13.106,0,5.76,9.648,12.889,9.648,19.585,0,6.193-7.344,9.217-12.6,9.217a21.948,21.948,0,0,1-11.593-3.6c-7.489-4.825-10.585-9.361-10.585-12.169a2.666,2.666,0,0,1,2.808-2.736c2.664,0,6.049,2.664,6.48,5.544.649,4.249,5.545,7.417,8.425,7.345,3.1,0,6.337-1.656,6.337-5.185a6.963,6.963,0,0,0-2.664-5.256c-2.737-2.376-7.057-7.2-7.057-14.186a20.046,20.046,0,0,1,.864-5.544c2.016-6.552,13.249-15.985,20.234-15.985,2.808,0,4.824,1.656,6.553,5.256,1.727,3.528,4.824,5.041,4.824,9.937C488.364,32.064,484.547,40.2,481.019,40.2Z" transform="translate(0.001 -10.039)" fill="#ed1c24"/><path d="M31.394,43.881H30.17c.144,3.817,2.664,10.8,12.745,15.194a1.7,1.7,0,0,1,1.152,1.511c0,1.8-2.016,2.881-3.528,2.881-3.241,0-17.786-4.1-22.034-19.513C15.48,48.49,8.28,60.586,6.984,62.747A2.477,2.477,0,0,1,4.9,64.116c-2.3,0-4.9-4.249-4.9-6.266a6.617,6.617,0,0,1,1.008-3.168c3.673-6.192,28.37-41.475,29.235-42.7a1.454,1.454,0,0,1,1.3-.649c3.384,0,6.552,4.537,6.84,7.489,2.737-1.728,8.5-5.04,12.457-5.04,4.321,0,4.753,3.744,6.481,6.625a5.705,5.705,0,0,1,.72,3.024C58.036,34.305,41.331,43.881,31.394,43.881ZM48.6,19.255c-7.057,0-18.506,10.009-21.747,16.13a1.916,1.916,0,0,0-.215.864c0,.792.648,1.368,2.087,1.368,5.4,0,21.53-11.233,21.53-16.634A1.606,1.606,0,0,0,48.6,19.255Z" transform="translate(0.001 -10.039)" fill="#ed1c24"/><path d="M141.773,16.375c-13.033,13.393-28.3,31.251-38.523,44.211A5.149,5.149,0,0,1,99,62.891c-2.665,0-8.353-3.168-8.353-6.049a6.346,6.346,0,0,1,.216-1.511c.576-1.584,7.561-16.562,9.577-21.962-6.985,5.9-25.058,25.418-28.083,28.8a3.323,3.323,0,0,1-2.3,1.37,6.527,6.527,0,0,1-2.88-1.225,10.311,10.311,0,0,1-5.184-9,4.391,4.391,0,0,1,.5-2.017c.5-1.224,20.953-37.083,22.321-39.6a1.021,1.021,0,0,1,1.009-.5c1.152,0,3.24.792,7.344,1.8a4.117,4.117,0,0,1,1.944,3.168,2.023,2.023,0,0,1-.288,1.08c-3.96,6.409-15.7,24.41-19.585,32.043,10.009-9.865,30.89-33.123,33.2-35.211a3.524,3.524,0,0,1,2.448-1.08c1.44,0,8.569,3.168,8.569,4.464a1.17,1.17,0,0,1-.288.72C117.939,20.408,106.2,38.121,102.818,50c4.9-5.977,28.947-32.619,30.315-33.915a11.455,11.455,0,0,1,7.2-3.24c1.369,0,2.592.5,2.592,1.512A3.268,3.268,0,0,1,141.773,16.375Z" transform="translate(0.001 -10.039)" fill="#ed1c24"/><path d="M171,15.943c-2.016.648-11.233,2.016-18.794,3.241-2.376,3.024-7.056,9.288-11.953,16.417,5.761-.864,13.609-1.656,15.41-1.656,1.44,0,3.96,1.944,4.824,3.024a1.367,1.367,0,0,1,.216.648c0,.576-.5,1.3-1.944,1.3-1.872,0-15.7,1.3-24.914,6.409-2.089,3.24-3.961,6.408-5.545,9.217a125.2,125.2,0,0,1,16.418-2.521c2.376,0,6.408,1.225,6.408,4.248v.145c-.072,1.368-13.969,3.024-25.13,7.56a1.6,1.6,0,0,1-.648.072,9.981,9.981,0,0,1-4.752-2.016,7.063,7.063,0,0,1-2.953-5.689,6.559,6.559,0,0,1,.5-2.519c1.3-3.673,17.858-30.171,22.25-36.58a9.267,9.267,0,0,1-.576-2.88c0-.72.144-1.3.5-1.44,1.656-.72,18.866-2.521,21.962-2.592h1.224c2.809,0,4.032.36,6.985,2.376a2.633,2.633,0,0,1,1.224,2.16C171.723,15.367,171.507,15.871,171,15.943Z" transform="translate(0.001 -10.039)" fill="#ed1c24"/><path d="M194.977,37.833a14.557,14.557,0,0,1,4.393,10.153c0,10.657-12.674,15.481-21.53,15.481-3.313,0-10.873-1.44-14.618-7.7-.216.361-.431.793-.648,1.153-.792,1.511-1.8,2.087-2.736,2.087-2.3,0-4.68-3.312-4.68-6.84a6.948,6.948,0,0,1,.72-3.1c1.512-2.952,15.265-20.234,22.538-29.09-4.177,1.224-7.7,2.592-9.5,3.816a3.86,3.86,0,0,1-2.161.72c-2.808,0-3.744-3.6-3.744-5.833a2.316,2.316,0,0,1,1.513-2.448c2.448-1.08,15.481-6.192,26.858-6.192,7.489,0,11.376,1.152,14.905,8.065,1.009,1.8,2.953,4.32,2.953,6.48C209.235,29.192,202.97,34.593,194.977,37.833ZM184.9,40.713a38.415,38.415,0,0,0-13.321,2.808c-2.016,2.665-3.888,5.329-5.544,7.7,1.656,2.376,6.048,3.528,10.873,3.528,7.56,0,15.985-3.024,15.985-9.36C192.889,41.217,188.137,40.713,184.9,40.713Zm9.937-23.474a38.123,38.123,0,0,0-4.824.36,2.472,2.472,0,0,1,.936,1.656,2.089,2.089,0,0,1-.864,1.513c-.72.648-5.04,5.688-10.153,12.024,6.624-.144,22.61-6.12,22.61-11.736C202.538,17.527,197.209,17.239,194.833,17.239Z" transform="translate(0.001 -10.039)" fill="#ed1c24"/><path d="M237.958,63.323c-5.616,0-10.008-2.3-11.3-5.905-.721,1.3-1.3,2.521-1.8,3.6-.72,1.584-1.728,2.231-2.736,2.231-2.376,0-4.968-3.455-4.968-6.984a5.733,5.733,0,0,1,.576-2.664c1.367-3.24,15.481-23.618,22.249-32.978-2.231,1.007-4.68,2.231-7.488,3.744a3.608,3.608,0,0,1-1.8.5c-2.017,0-5.688-2.953-5.688-5.113a1.657,1.657,0,0,1,1.007-1.512c6.193-3.1,14.186-7.632,22.611-7.632a20.78,20.78,0,0,1,12.673,4.248c1.944,1.44,8.64,5.472,8.64,14.473C269.929,44.242,253.368,63.323,237.958,63.323Zm15.266-46.372a18.54,18.54,0,0,0-3.24.288,4.161,4.161,0,0,1,1.439,3.025,3.274,3.274,0,0,1-.935,2.3C249.335,23.72,238.535,38.193,230.9,50.29a5.449,5.449,0,0,0-.072,1.08c0,3.24,1.656,4.825,4.32,4.825,10.225,0,25.994-20.594,25.994-31.035C261.144,19.4,258.48,16.951,253.224,16.951Z" transform="translate(0.001 -10.039)" fill="#ed1c24"/><path d="M317.16,15.943c-2.016.648-11.233,2.016-18.793,3.241-2.376,3.024-7.057,9.288-11.953,16.417,5.76-.864,13.609-1.656,15.409-1.656,1.44,0,3.96,1.944,4.824,3.024a1.367,1.367,0,0,1,.216.648c0,.576-.5,1.3-1.944,1.3-1.872,0-15.7,1.3-24.914,6.409-2.088,3.24-3.961,6.408-5.545,9.217a125.22,125.22,0,0,1,16.417-2.521c2.377,0,6.41,1.225,6.41,4.248v.145c-.073,1.368-13.97,3.024-25.13,7.56a1.606,1.606,0,0,1-.649.072,9.988,9.988,0,0,1-4.753-2.016,7.068,7.068,0,0,1-2.952-5.689,6.559,6.559,0,0,1,.5-2.519c1.3-3.673,17.859-30.171,22.25-36.58a9.3,9.3,0,0,1-.576-2.88c0-.72.144-1.3.5-1.44,1.656-.72,18.865-2.521,21.962-2.592h1.223c2.809,0,4.033.36,6.985,2.376a2.633,2.633,0,0,1,1.224,2.16C317.88,15.367,317.665,15.871,317.16,15.943Z" transform="translate(0.001 -10.039)" fill="#ed1c24"/><path d="M337.894,39.2c-2.592,0-4.177-4.825-4.177-6.912a8.285,8.285,0,0,1,2.521-5.833,5.312,5.312,0,0,0,1.8-3.24c0-.864-.649-1.441-1.729-1.441-4.465,0-12.745,8.93-12.745,13.106,0,5.76,9.648,12.889,9.648,19.585,0,6.193-7.344,9.217-12.6,9.217a21.948,21.948,0,0,1-11.593-3.6c-7.489-4.825-10.585-9.361-10.585-12.169a2.666,2.666,0,0,1,2.808-2.736c2.664,0,6.049,2.664,6.48,5.544.649,4.249,5.545,7.417,8.425,7.345,3.1,0,6.337-1.656,6.337-5.185a6.963,6.963,0,0,0-2.664-5.256c-2.737-2.376-7.057-7.2-7.057-14.186a20.046,20.046,0,0,1,.864-5.544c2.016-6.552,13.249-15.985,20.234-15.985,2.808,0,4.824,1.656,6.553,5.256,1.727,3.528,4.824,5.041,4.824,9.937C345.239,31.064,341.422,39.2,337.894,39.2Z" transform="translate(0.001 -10.039)" fill="#ed1c24"/><path d="M369.933,20.264c-9.073,9.936-22.61,33.483-26.427,40.9-.935,1.873-2.015,2.592-3.023,2.592-2.665,0-6.049-4.9-6.049-7.272a4.648,4.648,0,0,1,.864-2.593c3.241-4.752,19.8-31.322,26.93-40.9a2.158,2.158,0,0,1,1.8-1.08c2.088,0,7.272,3.24,7.272,5.472A4.266,4.266,0,0,1,369.933,20.264Z" transform="translate(0.001 -10.039)" fill="#ed1c24"/><path d="M401.685,28.976c-1.872,2.88-4.176,4.537-6.264,4.537a3.768,3.768,0,0,1-3.888-3.817,8.907,8.907,0,0,1,3.6-6.48c2.16-1.512,3.168-2.737,3.168-3.673,0-1.008-.936-1.512-1.872-1.512-8.785,0-31.035,25.346-31.035,34.563,0,2.3,1.44,3.385,3.528,3.385,6.121,0,16.274-9.289,16.418-12.529-2.16,0-3.961-.144-4.824-.217a2.788,2.788,0,0,1-2.377-3.1c0-3.528,1.009-4.176,4.32-4.176,4.609,0,15.986.288,17.283.288,1.439,0,4.464,2.664,4.464,4.68,0,.936-.648,1.728-2.521,2.016a71.162,71.162,0,0,1-7.992.505,5.1,5.1,0,0,1,.072,1.008c0,10.369-19.658,19.945-21.674,19.945-3.961-.36-5.905-2.664-8.209-4.68-3.816-3.168-7.344-4.681-7.344-10.369,0-14.4,26.786-39.171,33.7-38.883,3.168.144,4.68,1.224,7.056,3.024,1.657,1.224,3.384,1.728,5.473,3.96a5.894,5.894,0,0,1,1.655,4.105C404.421,24.008,403.125,26.6,401.685,28.976Z" transform="translate(0.001 -10.039)" fill="#ed1c24"/><path d="M461.159,18.751c-7.129,6.913-22.467,29.523-30.243,41.188-1.512,2.231-3.1,3.24-4.752,3.24a6.934,6.934,0,0,1-3.889-1.656c-1.584-1.3-5.473-1.728-5.4-6.048.072-7.057,3.383-18.938,5.04-26.067-5.544,7.921-20.162,30.171-21.17,31.971a2.965,2.965,0,0,1-2.737,1.44c-2.376,0-5.183-1.944-5.183-4.824a6.352,6.352,0,0,1,.575-2.376c.721-1.369,26.787-39.532,27.938-41.332a2.481,2.481,0,0,1,2.161-1.08,10.712,10.712,0,0,1,3.745,1.08c2.015.936,3.887.432,5.9,2.088.935.864,2.16,1.656,2.16,2.953a2.7,2.7,0,0,1-.072.719c-1.584,4.753-6.7,14.4-7.992,29.451,4.391-5.977,24.985-36.291,25.994-37.875a2.646,2.646,0,0,1,2.519-1.081c2.449,0,7.129,2.161,7.129,5.113A4.421,4.421,0,0,1,461.159,18.751Z" transform="translate(0.001 -10.039)" fill="#ed1c24"/><path d="M480.019,39.2c-2.592,0-4.177-4.825-4.177-6.912a8.285,8.285,0,0,1,2.521-5.833,5.312,5.312,0,0,0,1.8-3.24c0-.864-.649-1.441-1.729-1.441-4.465,0-12.745,8.93-12.745,13.106,0,5.76,9.648,12.889,9.648,19.585,0,6.193-7.344,9.217-12.6,9.217a21.948,21.948,0,0,1-11.593-3.6c-7.489-4.825-10.585-9.361-10.585-12.169a2.666,2.666,0,0,1,2.808-2.736c2.664,0,6.049,2.664,6.48,5.544.649,4.249,5.545,7.417,8.425,7.345,3.1,0,6.337-1.656,6.337-5.185a6.963,6.963,0,0,0-2.664-5.256c-2.737-2.376-7.057-7.2-7.057-14.186a20.046,20.046,0,0,1,.864-5.544c2.016-6.552,13.249-15.985,20.234-15.985,2.808,0,4.824,1.656,6.553,5.256,1.727,3.528,4.824,5.041,4.824,9.937C487.364,31.064,483.547,39.2,480.019,39.2Z" transform="translate(0.001 -10.039)" fill="#ed1c24"/><path d="M31.394,43.881H30.17c.144,3.817,2.664,10.8,12.745,15.194a1.7,1.7,0,0,1,1.152,1.511c0,1.8-2.016,2.881-3.528,2.881-3.241,0-17.786-4.1-22.034-19.513C15.48,48.49,8.28,60.586,6.984,62.747A2.477,2.477,0,0,1,4.9,64.116c-2.3,0-4.9-4.249-4.9-6.266a6.617,6.617,0,0,1,1.008-3.168c3.673-6.192,28.37-41.475,29.235-42.7a1.454,1.454,0,0,1,1.3-.649c3.384,0,6.552,4.537,6.84,7.489,2.737-1.728,8.5-5.04,12.457-5.04,4.321,0,4.753,3.744,6.481,6.625a5.705,5.705,0,0,1,.72,3.024C58.036,34.305,41.331,43.881,31.394,43.881ZM48.6,19.255c-7.057,0-18.506,10.009-21.747,16.13a1.916,1.916,0,0,0-.215.864c0,.792.648,1.368,2.087,1.368,5.4,0,21.53-11.233,21.53-16.634A1.606,1.606,0,0,0,48.6,19.255Z" transform="translate(0.001 -10.039)" fill="#231f20"/><path d="M141.773,16.375c-13.033,13.393-28.3,31.251-38.523,44.211A5.149,5.149,0,0,1,99,62.891c-2.665,0-8.353-3.168-8.353-6.049a6.346,6.346,0,0,1,.216-1.511c.576-1.584,7.561-16.562,9.577-21.962-6.985,5.9-25.058,25.418-28.083,28.8a3.323,3.323,0,0,1-2.3,1.37,6.527,6.527,0,0,1-2.88-1.225,10.311,10.311,0,0,1-5.184-9,4.391,4.391,0,0,1,.5-2.017c.5-1.224,20.953-37.083,22.321-39.6a1.021,1.021,0,0,1,1.009-.5c1.152,0,3.24.792,7.344,1.8a4.117,4.117,0,0,1,1.944,3.168,2.023,2.023,0,0,1-.288,1.08c-3.96,6.409-15.7,24.41-19.585,32.043,10.009-9.865,30.89-33.123,33.2-35.211a3.524,3.524,0,0,1,2.448-1.08c1.44,0,8.569,3.168,8.569,4.464a1.17,1.17,0,0,1-.288.72C117.939,20.408,106.2,38.121,102.818,50c4.9-5.977,28.947-32.619,30.315-33.915a11.455,11.455,0,0,1,7.2-3.24c1.369,0,2.592.5,2.592,1.512A3.268,3.268,0,0,1,141.773,16.375Z" transform="translate(0.001 -10.039)" fill="#231f20"/><path d="M171,15.943c-2.016.648-11.233,2.016-18.794,3.241-2.376,3.024-7.056,9.288-11.953,16.417,5.761-.864,13.609-1.656,15.41-1.656,1.44,0,3.96,1.944,4.824,3.024a1.367,1.367,0,0,1,.216.648c0,.576-.5,1.3-1.944,1.3-1.872,0-15.7,1.3-24.914,6.409-2.089,3.24-3.961,6.408-5.545,9.217a125.2,125.2,0,0,1,16.418-2.521c2.376,0,6.408,1.225,6.408,4.248v.145c-.072,1.368-13.969,3.024-25.13,7.56a1.6,1.6,0,0,1-.648.072,9.981,9.981,0,0,1-4.752-2.016,7.063,7.063,0,0,1-2.953-5.689,6.559,6.559,0,0,1,.5-2.519c1.3-3.673,17.858-30.171,22.25-36.58a9.267,9.267,0,0,1-.576-2.88c0-.72.144-1.3.5-1.44,1.656-.72,18.866-2.521,21.962-2.592h1.224c2.809,0,4.032.36,6.985,2.376a2.633,2.633,0,0,1,1.224,2.16C171.723,15.367,171.507,15.871,171,15.943Z" transform="translate(0.001 -10.039)" fill="#231f20"/><path d="M194.977,37.833a14.557,14.557,0,0,1,4.393,10.153c0,10.657-12.674,15.481-21.53,15.481-3.313,0-10.873-1.44-14.618-7.7-.216.361-.431.793-.648,1.153-.792,1.511-1.8,2.087-2.736,2.087-2.3,0-4.68-3.312-4.68-6.84a6.948,6.948,0,0,1,.72-3.1c1.512-2.952,15.265-20.234,22.538-29.09-4.177,1.224-7.7,2.592-9.5,3.816a3.86,3.86,0,0,1-2.161.72c-2.808,0-3.744-3.6-3.744-5.833a2.316,2.316,0,0,1,1.513-2.448c2.448-1.08,15.481-6.192,26.858-6.192,7.489,0,11.376,1.152,14.905,8.065,1.009,1.8,2.953,4.32,2.953,6.48C209.235,29.192,202.97,34.593,194.977,37.833ZM184.9,40.713a38.415,38.415,0,0,0-13.321,2.808c-2.016,2.665-3.888,5.329-5.544,7.7,1.656,2.376,6.048,3.528,10.873,3.528,7.56,0,15.985-3.024,15.985-9.36C192.889,41.217,188.137,40.713,184.9,40.713Zm9.937-23.474a38.123,38.123,0,0,0-4.824.36,2.472,2.472,0,0,1,.936,1.656,2.089,2.089,0,0,1-.864,1.513c-.72.648-5.04,5.688-10.153,12.024,6.624-.144,22.61-6.12,22.61-11.736C202.538,17.527,197.209,17.239,194.833,17.239Z" transform="translate(0.001 -10.039)" fill="#231f20"/><path d="M237.958,63.323c-5.616,0-10.008-2.3-11.3-5.905-.721,1.3-1.3,2.521-1.8,3.6-.72,1.584-1.728,2.231-2.736,2.231-2.376,0-4.968-3.455-4.968-6.984a5.733,5.733,0,0,1,.576-2.664c1.367-3.24,15.481-23.618,22.249-32.978-2.231,1.007-4.68,2.231-7.488,3.744a3.608,3.608,0,0,1-1.8.5c-2.017,0-5.688-2.953-5.688-5.113a1.657,1.657,0,0,1,1.007-1.512c6.193-3.1,14.186-7.632,22.611-7.632a20.78,20.78,0,0,1,12.673,4.248c1.944,1.44,8.64,5.472,8.64,14.473C269.929,44.242,253.368,63.323,237.958,63.323Zm15.266-46.372a18.54,18.54,0,0,0-3.24.288,4.161,4.161,0,0,1,1.439,3.025,3.274,3.274,0,0,1-.935,2.3C249.335,23.72,238.535,38.193,230.9,50.29a5.449,5.449,0,0,0-.072,1.08c0,3.24,1.656,4.825,4.32,4.825,10.225,0,25.994-20.594,25.994-31.035C261.144,19.4,258.48,16.951,253.224,16.951Z" transform="translate(0.001 -10.039)" fill="#231f20"/><path d="M317.16,15.943c-2.016.648-11.233,2.016-18.793,3.241-2.376,3.024-7.057,9.288-11.953,16.417,5.76-.864,13.609-1.656,15.409-1.656,1.44,0,3.96,1.944,4.824,3.024a1.367,1.367,0,0,1,.216.648c0,.576-.5,1.3-1.944,1.3-1.872,0-15.7,1.3-24.914,6.409-2.088,3.24-3.961,6.408-5.545,9.217a125.22,125.22,0,0,1,16.417-2.521c2.377,0,6.41,1.225,6.41,4.248v.145c-.073,1.368-13.97,3.024-25.13,7.56a1.606,1.606,0,0,1-.649.072,9.988,9.988,0,0,1-4.753-2.016,7.068,7.068,0,0,1-2.952-5.689,6.559,6.559,0,0,1,.5-2.519c1.3-3.673,17.859-30.171,22.25-36.58a9.3,9.3,0,0,1-.576-2.88c0-.72.144-1.3.5-1.44,1.656-.72,18.865-2.521,21.962-2.592h1.223c2.809,0,4.033.36,6.985,2.376a2.633,2.633,0,0,1,1.224,2.16C317.88,15.367,317.665,15.871,317.16,15.943Z" transform="translate(0.001 -10.039)" fill="#231f20"/><path d="M337.894,39.2c-2.592,0-4.177-4.825-4.177-6.912a8.285,8.285,0,0,1,2.521-5.833,5.312,5.312,0,0,0,1.8-3.24c0-.864-.649-1.441-1.729-1.441-4.465,0-12.745,8.93-12.745,13.106,0,5.76,9.648,12.889,9.648,19.585,0,6.193-7.344,9.217-12.6,9.217a21.948,21.948,0,0,1-11.593-3.6c-7.489-4.825-10.585-9.361-10.585-12.169a2.666,2.666,0,0,1,2.808-2.736c2.664,0,6.049,2.664,6.48,5.544.649,4.249,5.545,7.417,8.425,7.345,3.1,0,6.337-1.656,6.337-5.185a6.963,6.963,0,0,0-2.664-5.256c-2.737-2.376-7.057-7.2-7.057-14.186a20.046,20.046,0,0,1,.864-5.544c2.016-6.552,13.249-15.985,20.234-15.985,2.808,0,4.824,1.656,6.553,5.256,1.727,3.528,4.824,5.041,4.824,9.937C345.239,31.064,341.422,39.2,337.894,39.2Z" transform="translate(0.001 -10.039)" fill="#231f20"/><path d="M369.933,20.264c-9.073,9.936-22.61,33.483-26.427,40.9-.935,1.873-2.015,2.592-3.023,2.592-2.665,0-6.049-4.9-6.049-7.272a4.648,4.648,0,0,1,.864-2.593c3.241-4.752,19.8-31.322,26.93-40.9a2.158,2.158,0,0,1,1.8-1.08c2.088,0,7.272,3.24,7.272,5.472A4.266,4.266,0,0,1,369.933,20.264Z" transform="translate(0.001 -10.039)" fill="#231f20"/><path d="M401.685,28.976c-1.872,2.88-4.176,4.537-6.264,4.537a3.768,3.768,0,0,1-3.888-3.817,8.907,8.907,0,0,1,3.6-6.48c2.16-1.512,3.168-2.737,3.168-3.673,0-1.008-.936-1.512-1.872-1.512-8.785,0-31.035,25.346-31.035,34.563,0,2.3,1.44,3.385,3.528,3.385,6.121,0,16.274-9.289,16.418-12.529-2.16,0-3.961-.144-4.824-.217a2.788,2.788,0,0,1-2.377-3.1c0-3.528,1.009-4.176,4.32-4.176,4.609,0,15.986.288,17.283.288,1.439,0,4.464,2.664,4.464,4.68,0,.936-.648,1.728-2.521,2.016a71.162,71.162,0,0,1-7.992.505,5.1,5.1,0,0,1,.072,1.008c0,10.369-19.658,19.945-21.674,19.945-3.961-.36-5.905-2.664-8.209-4.68-3.816-3.168-7.344-4.681-7.344-10.369,0-14.4,26.786-39.171,33.7-38.883,3.168.144,4.68,1.224,7.056,3.024,1.657,1.224,3.384,1.728,5.473,3.96a5.894,5.894,0,0,1,1.655,4.105C404.421,24.008,403.125,26.6,401.685,28.976Z" transform="translate(0.001 -10.039)" fill="#231f20"/><path d="M461.159,18.751c-7.129,6.913-22.467,29.523-30.243,41.188-1.512,2.231-3.1,3.24-4.752,3.24a6.934,6.934,0,0,1-3.889-1.656c-1.584-1.3-5.473-1.728-5.4-6.048.072-7.057,3.383-18.938,5.04-26.067-5.544,7.921-20.162,30.171-21.17,31.971a2.965,2.965,0,0,1-2.737,1.44c-2.376,0-5.183-1.944-5.183-4.824a6.352,6.352,0,0,1,.575-2.376c.721-1.369,26.787-39.532,27.938-41.332a2.481,2.481,0,0,1,2.161-1.08,10.712,10.712,0,0,1,3.745,1.08c2.015.936,3.887.432,5.9,2.088.935.864,2.16,1.656,2.16,2.953a2.7,2.7,0,0,1-.072.719c-1.584,4.753-6.7,14.4-7.992,29.451,4.391-5.977,24.985-36.291,25.994-37.875a2.646,2.646,0,0,1,2.519-1.081c2.449,0,7.129,2.161,7.129,5.113A4.421,4.421,0,0,1,461.159,18.751Z" transform="translate(0.001 -10.039)" fill="#231f20"/><path d="M480.019,39.2c-2.592,0-4.177-4.825-4.177-6.912a8.285,8.285,0,0,1,2.521-5.833,5.312,5.312,0,0,0,1.8-3.24c0-.864-.649-1.441-1.729-1.441-4.465,0-12.745,8.93-12.745,13.106,0,5.76,9.648,12.889,9.648,19.585,0,6.193-7.344,9.217-12.6,9.217a21.948,21.948,0,0,1-11.593-3.6c-7.489-4.825-10.585-9.361-10.585-12.169a2.666,2.666,0,0,1,2.808-2.736c2.664,0,6.049,2.664,6.48,5.544.649,4.249,5.545,7.417,8.425,7.345,3.1,0,6.337-1.656,6.337-5.185a6.963,6.963,0,0,0-2.664-5.256c-2.737-2.376-7.057-7.2-7.057-14.186a20.046,20.046,0,0,1,.864-5.544c2.016-6.552,13.249-15.985,20.234-15.985,2.808,0,4.824,1.656,6.553,5.256,1.727,3.528,4.824,5.041,4.824,9.937C487.364,31.064,483.547,39.2,480.019,39.2Z" transform="translate(0.001 -10.039)" fill="#231f20"/></svg>