<svg id="Layer_1" data-name="Layer 1" xmlns="http://www.w3.org/2000/svg" viewBox="0 0 155.872 55.5"><path d="M31.4,33.267H30.17c.144,3.816,2.664,10.8,12.746,15.193a1.7,1.7,0,0,1,1.151,1.512c0,1.8-2.016,2.88-3.528,2.88-3.24,0-17.786-4.1-22.034-19.514C15.481,37.88,8.28,49.972,6.984,52.132A2.474,2.474,0,0,1,4.9,53.5C2.6,53.5,0,49.252,0,47.235a6.6,6.6,0,0,1,1.008-3.167c3.672-6.193,28.37-41.476,29.234-42.7a1.455,1.455,0,0,1,1.3-.647c3.385,0,6.553,4.536,6.841,7.488,2.736-1.728,8.5-5.04,12.457-5.04,4.32,0,4.752,3.744,6.48,6.624a5.7,5.7,0,0,1,.721,3.025C58.037,23.69,41.331,33.267,31.4,33.267ZM48.6,8.641c-7.057,0-18.506,10.009-21.746,16.129a1.912,1.912,0,0,0-.216.864c0,.792.648,1.368,2.088,1.368,5.4,0,21.53-11.233,21.53-16.634a1.6,1.6,0,0,0-1.467-1.723A1.7,1.7,0,0,0,48.6,8.641Z"/><path d="M124.494,5.76C111.461,19.153,96.2,37.011,85.971,49.972a5.149,5.149,0,0,1-4.248,2.3c-2.664,0-8.353-3.168-8.353-6.048a6.344,6.344,0,0,1,.216-1.513c.576-1.584,7.561-16.561,9.577-21.962-6.985,5.905-25.058,25.419-28.082,28.8a3.323,3.323,0,0,1-2.3,1.368A6.528,6.528,0,0,1,49.9,51.7a10.312,10.312,0,0,1-5.184-9,4.387,4.387,0,0,1,.5-2.016c.5-1.224,20.953-37.083,22.322-39.6a1.022,1.022,0,0,1,1.008-.5c1.152,0,3.24.792,7.345,1.8a4.115,4.115,0,0,1,1.943,3.168,2.022,2.022,0,0,1-.288,1.08c-3.96,6.408-15.7,24.41-19.585,32.043C67.97,28.8,88.852,5.544,91.155,3.456A3.53,3.53,0,0,1,93.6,2.38c1.44,0,8.569,3.168,8.569,4.464a1.164,1.164,0,0,1-.288.721C100.656,9.8,88.919,27.51,85.535,39.391c4.9-5.977,28.946-32.619,30.315-33.915a11.457,11.457,0,0,1,7.2-3.24c1.368,0,2.591.5,2.591,1.512A3.269,3.269,0,0,1,124.494,5.76Z"/><path d="M121.9,52.708c-5.617,0-10.008-2.3-11.305-5.9-.72,1.3-1.3,2.519-1.8,3.6-.72,1.585-1.729,2.233-2.736,2.233-2.376,0-4.969-3.456-4.969-6.985a5.751,5.751,0,0,1,.576-2.664c1.368-3.24,15.482-23.618,22.25-32.979-2.232,1.009-4.681,2.232-7.488,3.745a3.621,3.621,0,0,1-1.8.5c-2.016,0-5.688-2.952-5.688-5.112a1.655,1.655,0,0,1,1.008-1.513C116.141,4.533,124.133,0,132.558,0a20.779,20.779,0,0,1,12.674,4.249c1.943,1.44,8.64,5.473,8.64,14.473C153.868,33.626,137.307,52.708,121.9,52.708ZM137.165,6.336a18.524,18.524,0,0,0-3.24.288,4.156,4.156,0,0,1,1.44,3.025,3.264,3.264,0,0,1-.936,2.3c-1.155,1.156-11.955,15.631-19.588,27.731a5.429,5.429,0,0,0-.072,1.08c0,3.24,1.656,4.824,4.32,4.824,10.224,0,25.994-20.594,25.994-31.034,0-5.77-2.664-8.214-7.921-8.214Z"/><path d="M33.4,35.267H32.17c.144,3.816,2.664,10.8,12.746,15.193a1.7,1.7,0,0,1,1.151,1.512c0,1.8-2.016,2.88-3.528,2.88-3.24,0-17.786-4.1-22.034-19.514C17.481,39.88,10.28,51.972,8.984,54.132A2.474,2.474,0,0,1,6.9,55.5C4.6,55.5,2,51.252,2,49.235a6.6,6.6,0,0,1,1.008-3.167c3.672-6.193,28.37-41.476,29.234-42.7a1.455,1.455,0,0,1,1.3-.647c3.385,0,6.553,4.536,6.841,7.488,2.736-1.728,8.5-5.04,12.457-5.04,4.32,0,4.752,3.744,6.48,6.624a5.7,5.7,0,0,1,.721,3.025C60.037,25.69,43.331,35.267,33.4,35.267ZM50.6,10.641c-7.057,0-18.506,10.009-21.746,16.129a1.912,1.912,0,0,0-.216.864c0,.792.648,1.368,2.088,1.368,5.4,0,21.53-11.233,21.53-16.634a1.6,1.6,0,0,0-1.467-1.723A1.7,1.7,0,0,0,50.6,10.641Z" fill="#c1272d"/><path d="M126.494,7.76C113.461,21.153,98.2,39.011,87.971,51.972a5.149,5.149,0,0,1-4.248,2.3c-2.664,0-8.353-3.168-8.353-6.048a6.344,6.344,0,0,1,.216-1.513c.576-1.584,7.561-16.561,9.577-21.962-6.985,5.905-25.058,25.419-28.082,28.8a3.323,3.323,0,0,1-2.3,1.368A6.528,6.528,0,0,1,51.9,53.7a10.312,10.312,0,0,1-5.184-9,4.387,4.387,0,0,1,.5-2.016c.5-1.224,20.953-37.083,22.322-39.6a1.022,1.022,0,0,1,1.008-.5c1.152,0,3.24.792,7.345,1.8a4.115,4.115,0,0,1,1.943,3.168,2.022,2.022,0,0,1-.288,1.08c-3.96,6.408-15.7,24.41-19.585,32.043C69.97,30.8,90.852,7.544,93.155,5.456A3.53,3.53,0,0,1,95.6,4.38c1.44,0,8.569,3.168,8.569,4.464a1.164,1.164,0,0,1-.288.721C102.656,11.8,90.919,29.51,87.535,41.391c4.9-5.977,28.946-32.619,30.315-33.915a11.457,11.457,0,0,1,7.2-3.24c1.368,0,2.591.5,2.591,1.512A3.269,3.269,0,0,1,126.494,7.76Z" fill="#c1272d"/><path d="M123.9,54.708c-5.617,0-10.008-2.3-11.305-5.9-.72,1.3-1.3,2.519-1.8,3.6-.72,1.585-1.729,2.233-2.736,2.233-2.376,0-4.969-3.456-4.969-6.985a5.751,5.751,0,0,1,.576-2.664c1.368-3.24,15.482-23.618,22.25-32.979-2.232,1.009-4.681,2.232-7.488,3.745a3.621,3.621,0,0,1-1.8.5c-2.016,0-5.688-2.952-5.688-5.112a1.655,1.655,0,0,1,1.008-1.513C118.141,6.533,126.133,2,134.558,2a20.779,20.779,0,0,1,12.674,4.249c1.943,1.44,8.64,5.473,8.64,14.473C155.868,35.626,139.307,54.708,123.9,54.708ZM139.165,8.336a18.524,18.524,0,0,0-3.24.288,4.156,4.156,0,0,1,1.44,3.025,3.264,3.264,0,0,1-.936,2.3c-1.155,1.156-11.955,15.631-19.588,27.731a5.429,5.429,0,0,0-.072,1.08c0,3.24,1.656,4.824,4.32,4.824,10.224,0,25.994-20.594,25.994-31.034,0-5.77-2.664-8.214-7.921-8.214Z" fill="#c1272d"/><path d="M32.4,34.267H31.17c.144,3.816,2.664,10.8,12.746,15.193a1.7,1.7,0,0,1,1.151,1.512c0,1.8-2.016,2.88-3.528,2.88-3.24,0-17.786-4.1-22.034-19.514C16.481,38.88,9.28,50.972,7.984,53.132A2.474,2.474,0,0,1,5.9,54.5C3.6,54.5,1,50.252,1,48.235a6.6,6.6,0,0,1,1.008-3.167c3.672-6.193,28.37-41.476,29.234-42.7a1.455,1.455,0,0,1,1.3-.647c3.385,0,6.553,4.536,6.841,7.488,2.736-1.728,8.5-5.04,12.457-5.04,4.32,0,4.752,3.744,6.48,6.624a5.7,5.7,0,0,1,.721,3.025C59.037,24.69,42.331,34.267,32.4,34.267ZM49.6,9.641c-7.057,0-18.506,10.009-21.746,16.129a1.912,1.912,0,0,0-.216.864c0,.792.648,1.368,2.088,1.368,5.4,0,21.53-11.233,21.53-16.634a1.6,1.6,0,0,0-1.467-1.723A1.7,1.7,0,0,0,49.6,9.641Z" fill="#c1272d"/><path d="M125.494,6.76C112.461,20.153,97.2,38.011,86.971,50.972a5.149,5.149,0,0,1-4.248,2.3c-2.664,0-8.353-3.168-8.353-6.048a6.344,6.344,0,0,1,.216-1.513c.576-1.584,7.561-16.561,9.577-21.962-6.985,5.905-25.058,25.419-28.082,28.8a3.323,3.323,0,0,1-2.3,1.368A6.528,6.528,0,0,1,50.9,52.7a10.312,10.312,0,0,1-5.184-9,4.387,4.387,0,0,1,.5-2.016c.5-1.224,20.953-37.083,22.322-39.6a1.022,1.022,0,0,1,1.008-.5c1.152,0,3.24.792,7.345,1.8a4.115,4.115,0,0,1,1.943,3.168,2.022,2.022,0,0,1-.288,1.08c-3.96,6.408-15.7,24.41-19.585,32.043C68.97,29.8,89.852,6.544,92.155,4.456A3.53,3.53,0,0,1,94.6,3.38c1.44,0,8.569,3.168,8.569,4.464a1.164,1.164,0,0,1-.288.721C101.656,10.8,89.919,28.51,86.535,40.391c4.9-5.977,28.946-32.619,30.315-33.915a11.457,11.457,0,0,1,7.2-3.24c1.368,0,2.591.5,2.591,1.512A3.269,3.269,0,0,1,125.494,6.76Z" fill="#c1272d"/><path d="M122.9,53.708c-5.617,0-10.008-2.3-11.305-5.9-.72,1.3-1.3,2.519-1.8,3.6-.72,1.585-1.729,2.233-2.736,2.233-2.376,0-4.969-3.456-4.969-6.985a5.751,5.751,0,0,1,.576-2.664c1.368-3.24,15.482-23.618,22.25-32.979-2.232,1.009-4.681,2.232-7.488,3.745a3.621,3.621,0,0,1-1.8.5c-2.016,0-5.688-2.952-5.688-5.112a1.655,1.655,0,0,1,1.008-1.513C117.141,5.533,125.133,1,133.558,1a20.779,20.779,0,0,1,12.674,4.249c1.943,1.44,8.64,5.473,8.64,14.473C154.868,34.626,138.307,53.708,122.9,53.708ZM138.165,7.336a18.524,18.524,0,0,0-3.24.288,4.156,4.156,0,0,1,1.44,3.025,3.264,3.264,0,0,1-.936,2.3c-1.155,1.156-11.955,15.631-19.588,27.731a5.429,5.429,0,0,0-.072,1.08c0,3.24,1.656,4.824,4.32,4.824,10.224,0,25.994-20.594,25.994-31.034,0-5.77-2.664-8.214-7.921-8.214Z" fill="#c1272d"/><path d="M31.4,33.267H30.17c.144,3.816,2.664,10.8,12.746,15.193a1.7,1.7,0,0,1,1.151,1.512c0,1.8-2.016,2.88-3.528,2.88-3.24,0-17.786-4.1-22.034-19.514C15.481,37.88,8.28,49.972,6.984,52.132A2.474,2.474,0,0,1,4.9,53.5C2.6,53.5,0,49.252,0,47.235a6.6,6.6,0,0,1,1.008-3.167c3.672-6.193,28.37-41.476,29.234-42.7a1.455,1.455,0,0,1,1.3-.647c3.385,0,6.553,4.536,6.841,7.488,2.736-1.728,8.5-5.04,12.457-5.04,4.32,0,4.752,3.744,6.48,6.624a5.7,5.7,0,0,1,.721,3.025C58.037,23.69,41.331,33.267,31.4,33.267ZM48.6,8.641c-7.057,0-18.506,10.009-21.746,16.129a1.912,1.912,0,0,0-.216.864c0,.792.648,1.368,2.088,1.368,5.4,0,21.53-11.233,21.53-16.634a1.6,1.6,0,0,0-1.467-1.723A1.7,1.7,0,0,0,48.6,8.641Z" fill="#c1272d"/><path d="M124.494,5.76C111.461,19.153,96.2,37.011,85.971,49.972a5.149,5.149,0,0,1-4.248,2.3c-2.664,0-8.353-3.168-8.353-6.048a6.344,6.344,0,0,1,.216-1.513c.576-1.584,7.561-16.561,9.577-21.962-6.985,5.905-25.058,25.419-28.082,28.8a3.323,3.323,0,0,1-2.3,1.368A6.528,6.528,0,0,1,49.9,51.7a10.312,10.312,0,0,1-5.184-9,4.387,4.387,0,0,1,.5-2.016c.5-1.224,20.953-37.083,22.322-39.6a1.022,1.022,0,0,1,1.008-.5c1.152,0,3.24.792,7.345,1.8a4.115,4.115,0,0,1,1.943,3.168,2.022,2.022,0,0,1-.288,1.08c-3.96,6.408-15.7,24.41-19.585,32.043C67.97,28.8,88.852,5.544,91.155,3.456A3.53,3.53,0,0,1,93.6,2.38c1.44,0,8.569,3.168,8.569,4.464a1.164,1.164,0,0,1-.288.721C100.656,9.8,88.919,27.51,85.535,39.391c4.9-5.977,28.946-32.619,30.315-33.915a11.457,11.457,0,0,1,7.2-3.24c1.368,0,2.591.5,2.591,1.512A3.269,3.269,0,0,1,124.494,5.76Z" fill="#c1272d"/><path d="M121.9,52.708c-5.617,0-10.008-2.3-11.305-5.9-.72,1.3-1.3,2.519-1.8,3.6-.72,1.585-1.729,2.233-2.736,2.233-2.376,0-4.969-3.456-4.969-6.985a5.751,5.751,0,0,1,.576-2.664c1.368-3.24,15.482-23.618,22.25-32.979-2.232,1.009-4.681,2.232-7.488,3.745a3.621,3.621,0,0,1-1.8.5c-2.016,0-5.688-2.952-5.688-5.112a1.655,1.655,0,0,1,1.008-1.513C116.141,4.533,124.133,0,132.558,0a20.779,20.779,0,0,1,12.674,4.249c1.943,1.44,8.64,5.473,8.64,14.473C153.868,33.626,137.307,52.708,121.9,52.708ZM137.165,6.336a18.524,18.524,0,0,0-3.24.288,4.156,4.156,0,0,1,1.44,3.025,3.264,3.264,0,0,1-.936,2.3c-1.155,1.156-11.955,15.631-19.588,27.731a5.429,5.429,0,0,0-.072,1.08c0,3.24,1.656,4.824,4.32,4.824,10.224,0,25.994-20.594,25.994-31.034,0-5.77-2.664-8.214-7.921-8.214Z" fill="#c1272d"/><path d="M31.4,33.267H30.17c.144,3.816,2.664,10.8,12.746,15.193a1.7,1.7,0,0,1,1.151,1.512c0,1.8-2.016,2.88-3.528,2.88-3.24,0-17.786-4.1-22.034-19.514C15.481,37.88,8.28,49.972,6.984,52.132A2.474,2.474,0,0,1,4.9,53.5C2.6,53.5,0,49.252,0,47.235a6.6,6.6,0,0,1,1.008-3.167c3.672-6.193,28.37-41.476,29.234-42.7a1.455,1.455,0,0,1,1.3-.647c3.385,0,6.553,4.536,6.841,7.488,2.736-1.728,8.5-5.04,12.457-5.04,4.32,0,4.752,3.744,6.48,6.624a5.7,5.7,0,0,1,.721,3.025C58.037,23.69,41.331,33.267,31.4,33.267ZM48.6,8.641c-7.057,0-18.506,10.009-21.746,16.129a1.912,1.912,0,0,0-.216.864c0,.792.648,1.368,2.088,1.368,5.4,0,21.53-11.233,21.53-16.634a1.6,1.6,0,0,0-1.467-1.723A1.7,1.7,0,0,0,48.6,8.641Z"/><path d="M124.494,5.76C111.461,19.153,96.2,37.011,85.971,49.972a5.149,5.149,0,0,1-4.248,2.3c-2.664,0-8.353-3.168-8.353-6.048a6.344,6.344,0,0,1,.216-1.513c.576-1.584,7.561-16.561,9.577-21.962-6.985,5.905-25.058,25.419-28.082,28.8a3.323,3.323,0,0,1-2.3,1.368A6.528,6.528,0,0,1,49.9,51.7a10.312,10.312,0,0,1-5.184-9,4.387,4.387,0,0,1,.5-2.016c.5-1.224,20.953-37.083,22.322-39.6a1.022,1.022,0,0,1,1.008-.5c1.152,0,3.24.792,7.345,1.8a4.115,4.115,0,0,1,1.943,3.168,2.022,2.022,0,0,1-.288,1.08c-3.96,6.408-15.7,24.41-19.585,32.043C67.97,28.8,88.852,5.544,91.155,3.456A3.53,3.53,0,0,1,93.6,2.38c1.44,0,8.569,3.168,8.569,4.464a1.164,1.164,0,0,1-.288.721C100.656,9.8,88.919,27.51,85.535,39.391c4.9-5.977,28.946-32.619,30.315-33.915a11.457,11.457,0,0,1,7.2-3.24c1.368,0,2.591.5,2.591,1.512A3.269,3.269,0,0,1,124.494,5.76Z"/><path d="M121.9,52.708c-5.617,0-10.008-2.3-11.305-5.9-.72,1.3-1.3,2.519-1.8,3.6-.72,1.585-1.729,2.233-2.736,2.233-2.376,0-4.969-3.456-4.969-6.985a5.751,5.751,0,0,1,.576-2.664c1.368-3.24,15.482-23.618,22.25-32.979-2.232,1.009-4.681,2.232-7.488,3.745a3.621,3.621,0,0,1-1.8.5c-2.016,0-5.688-2.952-5.688-5.112a1.655,1.655,0,0,1,1.008-1.513C116.141,4.533,124.133,0,132.558,0a20.779,20.779,0,0,1,12.674,4.249c1.943,1.44,8.64,5.473,8.64,14.473C153.868,33.626,137.307,52.708,121.9,52.708ZM137.165,6.336a18.524,18.524,0,0,0-3.24.288,4.156,4.156,0,0,1,1.44,3.025,3.264,3.264,0,0,1-.936,2.3c-1.155,1.156-11.955,15.631-19.588,27.731a5.429,5.429,0,0,0-.072,1.08c0,3.24,1.656,4.824,4.32,4.824,10.224,0,25.994-20.594,25.994-31.034,0-5.77-2.664-8.214-7.921-8.214Z"/></svg>