<svg id="Capa_1" enable-background="new 0 0 512 512" height="512" viewBox="0 0 512 512" width="512" xmlns="http://www.w3.org/2000/svg"><path d="m498.753 435.186-82.146-81.812c-5.86-5.837-15.341-5.828-21.191.021l-10.416 10.416-14.648-14.649c32.153-37.043 51.638-85.365 51.638-138.153.001-116.351-94.651-211.009-210.994-211.009s-210.996 94.658-210.996 211.009 94.652 211.009 210.996 211.009c52.785 0 101.104-19.486 138.145-51.642l14.648 14.649-10.585 10.585c-5.853 5.853-5.858 15.357 0 21.214l82.021 82.026c17.533 17.533 46.061 17.534 63.594 0 17.599-17.6 17.572-46.096-.066-63.664zm-193.35-117.702-20.575-11.881c-8.796 6.863-18.533 12.495-28.833 16.675v23.737c0 8.285-6.716 15.001-15 15.001h-59.999c-8.284 0-15-6.716-15-15.001v-23.737c-10.301-4.18-20.038-9.812-28.833-16.675l-20.575 11.881c-7.169 4.14-16.349 1.684-20.491-5.49l-29.999-51.962c-4.142-7.174-1.685-16.348 5.489-20.491l20.561-11.875c-1.481-10.654-1.586-21.91 0-33.314l-20.561-11.875c-7.174-4.143-9.631-13.316-5.489-20.491l29.999-51.962c4.139-7.168 13.313-9.634 20.491-5.49l20.575 11.881c8.796-6.863 18.533-12.495 28.833-16.675v-23.737c0-8.285 6.716-15.001 15-15.001h59.999c8.284 0 15 6.716 15 15.001v23.737c10.301 4.18 20.038 9.812 28.833 16.675l20.575-11.881c7.153-4.129 16.34-1.7 20.491 5.49l29.999 51.962c4.142 7.174 1.685 16.348-5.489 20.491l-20.561 11.875c1.481 10.654 1.586 21.91 0 33.314l20.561 11.875c7.174 4.143 9.631 13.316 5.489 20.491l-29.999 51.962c-4.14 7.169-13.316 9.631-20.491 5.49z"/><circle cx="210.996" cy="211.009" r="25"/><path d="m305.653 173.678 16.76-9.68-15-25.982-16.779 9.69c-5.746 3.317-12.988 2.466-17.807-2.092-10.232-9.678-22.718-16.898-36.109-20.881-6.361-1.892-10.723-7.741-10.723-14.378v-19.351h-29.999v19.351c0 6.637-4.362 12.486-10.723 14.378-13.39 3.983-25.876 11.204-36.109 20.881-4.82 4.559-12.062 5.41-17.807 2.092l-16.779-9.69-15 25.982 16.76 9.68c5.744 3.317 8.627 10.012 7.091 16.465-3.188 13.394-3.296 27.883 0 41.733 1.536 6.452-1.347 13.148-7.091 16.465l-16.76 9.68 15 25.982 16.779-9.69c5.745-3.317 12.989-2.466 17.807 2.092 10.232 9.678 22.718 16.898 36.109 20.881 6.361 1.892 10.723 7.741 10.723 14.378v19.351h29.999v-19.351c0-6.637 4.362-12.486 10.723-14.378 13.39-3.983 25.876-11.204 36.109-20.881 4.819-4.559 12.062-5.409 17.807-2.092l16.779 9.69 15-25.982-16.76-9.68c-5.744-3.317-8.627-10.012-7.091-16.465 3.188-13.394 3.296-27.883 0-41.733-1.536-6.453 1.347-13.148 7.091-16.465zm-94.657 92.333c-30.327 0-54.999-24.674-54.999-55.002s24.672-55.002 54.999-55.002 54.999 24.674 54.999 55.002-24.673 55.002-54.999 55.002z"/></svg>